# xmcd
#
# Track frame offsets:
#	150
#	10638
#	20980
#	33557
#	44485
#	55175
#	66555
#	84155
#	102430
#	115677
#	140935
#	154860
#	167780
#	190540
#	207915
#	216257
#	233102
#	248792
#	260315
#	271347
#	288245
#	302597
#	316550
#	328432
#	344595
#
# Disc length: 4856 seconds
#
# Revision: 0
# Processed by: cddbd v1.5.2PL0 Copyright (c) Steve Scherf et al.
# Submitted via: SynApp - FreeCDDB Version: 2.3
#
DISCID=7212f619
DTITLE=Johnny Cash/Rolling Stones - American Recordings I/More Hot Rocks [CD1]
DYEAR=1994
DGENRE=Country
TTITLE0=Johnny Cash - Delia's Gone
TTITLE1=Johnny Cash - Let The Train Blow The Whistle
TTITLE2=Johnny Cash - The Beast In Me
TTITLE3=Johnny Cash - Drive On
TTITLE4=Johnny Cash - Why Me Lord
TTITLE5=Johnny Cash - Thirteen
TTITLE6=Johnny Cash - Oh Bury Me Not [Introduction: A Cowboy's Prayer]
TTITLE7=Johnny Cash - Bird On A Wire
TTITLE8=Johnny Cash - Tennessee Stud
TTITLE9=Johnny Cash - Down There By The Train
TTITLE10=Johnny Cash - Redemption
TTITLE11=Johnny Cash - Like A Soldier
TTITLE12=Johnny Cash - The Man Who Couldn't Cry
TTITLE13=Rolling Stones - Tell Me (You're Coming Back)
TTITLE14=Rolling Stones - Not Fade Away
TTITLE15=Rolling Stones - The Last Time
TTITLE16=Rolling Stones - It's All Over Now
TTITLE17=Rolling Stones - Good Times Bad Times
TTITLE18=Rolling Stones - I'm Free
TTITLE19=Rolling Stones - Out Of Time
TTITLE20=Rolling Stones - Lady Jane
TTITLE21=Rolling Stones - Sittin' On A Fence
TTITLE22=Rolling Stones - Have You Seen Your Mother Baby, Standing In The Shadow
TTITLE23=Rolling Stones - Dandelion
TTITLE24=Rolling Stones - We Love You
EXTD=1994 and 1986
EXTT0=
EXTT1=
EXTT2=
EXTT3=
EXTT4=
EXTT5=
EXTT6=
EXTT7=
EXTT8=
EXTT9=
EXTT10=
EXTT11=
EXTT12=
EXTT13=
EXTT14=
EXTT15=
EXTT16=
EXTT17=
EXTT18=
EXTT19=
EXTT20=
EXTT21=
EXTT22=
EXTT23=
EXTT24=
PLAYORDER=
